<svg width="491" height="15" viewBox="0 0 491 15" fill="none" xmlns="http://www.w3.org/2000/svg">
<path d="M196.512 0C191.282 0 188.625 3.26727 186.49 5.89324C184.381 8.48398 183.055 9.95 180.324 9.95C177.594 9.95 176.27 8.48398 174.161 5.89324C172.026 3.26727 169.369 0 164.139 0C158.911 0 156.253 3.26849 154.118 5.89445C152.014 8.48398 150.688 9.95 147.963 9.95C145.239 9.95 143.915 8.48398 141.812 5.89445C139.679 3.26849 137.024 0 131.799 0C126.573 0 123.918 3.26727 121.783 5.89324C119.679 8.48398 118.355 9.95 115.627 9.95C112.904 9.95 111.58 8.48519 109.477 5.89445C107.344 3.26849 104.689 0 99.4611 0C94.2359 0 91.5808 3.26727 89.448 5.89324C87.3443 8.48398 86.0204 9.95 83.2948 9.95C80.5717 9.95 79.2478 8.48519 77.1441 5.89445C75.0112 3.26849 72.3561 0 67.1285 0C61.9033 0 59.2506 3.26849 57.1178 5.89445C55.0141 8.48398 53.6926 9.95 50.9695 9.95C48.2488 9.95 46.9248 8.48398 44.8236 5.89445C42.6932 3.26849 40.0405 0 34.8177 0C29.5901 0 26.935 3.26849 24.8021 5.89445C22.6984 8.48519 21.3745 9.95 18.6514 9.95C15.9283 9.95 14.6043 8.48398 12.5007 5.89445C10.3678 3.26849 7.71271 0 2.4875 0C1.11257 0 0 1.11379 0 2.4875C0 3.86121 1.11257 4.975 2.4875 4.975C5.21063 4.975 6.53455 6.44102 8.63823 9.03055C10.7711 11.6565 13.4262 14.925 18.6514 14.925C23.8766 14.925 26.5317 11.6577 28.6646 9.03176C30.7682 6.44102 32.0922 4.975 34.8177 4.975C37.5384 4.975 38.8599 6.43981 40.9612 9.02933C43.0916 11.6565 45.7467 14.925 50.9695 14.925C56.1947 14.925 58.8474 11.6565 60.9802 9.03055C63.0839 6.44102 64.4054 4.975 67.1285 4.975C69.854 4.975 71.178 6.44102 73.2817 9.03176C75.4145 11.6577 78.0696 14.925 83.2948 14.925C88.5224 14.925 91.1776 11.6565 93.3104 9.03055C95.4141 6.43981 96.738 4.975 99.4611 4.975C102.187 4.975 103.511 6.44102 105.614 9.03176C107.747 11.6577 110.402 14.925 115.627 14.925C120.855 14.925 123.51 11.6565 125.645 9.03055C127.749 6.44102 129.073 4.975 131.799 4.975C134.522 4.975 135.846 6.44102 137.949 9.03055C140.082 11.6565 142.737 14.925 147.963 14.925C153.19 14.925 155.845 11.6577 157.981 9.03176C160.087 6.44102 161.411 4.975 164.139 4.975C166.869 4.975 168.195 6.44102 170.304 9.03297C172.439 11.6577 175.097 14.925 180.324 14.925C185.554 14.925 188.212 11.6577 190.347 9.03176C192.456 6.44102 193.782 4.975 196.512 4.975C197.887 4.975 199 3.86121 199 2.4875C199 1.11379 197.887 0 196.512 0Z" fill="black"/>
<path d="M488.512 0C483.282 0 480.625 3.26727 478.49 5.89324C476.381 8.48398 475.055 9.95 472.324 9.95C469.594 9.95 468.27 8.48398 466.161 5.89324C464.026 3.26727 461.369 0 456.139 0C450.911 0 448.253 3.26849 446.118 5.89445C444.014 8.48398 442.688 9.95 439.963 9.95C437.239 9.95 435.915 8.48398 433.812 5.89445C431.679 3.26849 429.024 0 423.799 0C418.573 0 415.918 3.26727 413.783 5.89324C411.679 8.48398 410.355 9.95 407.627 9.95C404.904 9.95 403.58 8.48519 401.477 5.89445C399.344 3.26849 396.689 0 391.461 0C386.236 0 383.581 3.26727 381.448 5.89324C379.344 8.48398 378.02 9.95 375.295 9.95C372.572 9.95 371.248 8.48519 369.144 5.89445C367.011 3.26849 364.356 0 359.128 0C353.903 0 351.251 3.26849 349.118 5.89445C347.014 8.48398 345.693 9.95 342.969 9.95C340.249 9.95 338.925 8.48398 336.824 5.89445C334.693 3.26849 332.04 0 326.818 0C321.59 0 318.935 3.26849 316.802 5.89445C314.698 8.48519 313.375 9.95 310.651 9.95C307.928 9.95 306.604 8.48398 304.501 5.89445C302.368 3.26849 299.713 0 294.487 0C293.113 0 292 1.11379 292 2.4875C292 3.86121 293.113 4.975 294.487 4.975C297.211 4.975 298.535 6.44102 300.638 9.03055C302.771 11.6565 305.426 14.925 310.651 14.925C315.877 14.925 318.532 11.6577 320.665 9.03176C322.768 6.44102 324.092 4.975 326.818 4.975C329.538 4.975 330.86 6.43981 332.961 9.02933C335.092 11.6565 337.747 14.925 342.969 14.925C348.195 14.925 350.847 11.6565 352.98 9.03055C355.084 6.44102 356.405 4.975 359.128 4.975C361.854 4.975 363.178 6.44102 365.282 9.03176C367.414 11.6577 370.07 14.925 375.295 14.925C380.522 14.925 383.178 11.6565 385.31 9.03055C387.414 6.43981 388.738 4.975 391.461 4.975C394.187 4.975 395.511 6.44102 397.614 9.03176C399.747 11.6577 402.402 14.925 407.627 14.925C412.855 14.925 415.51 11.6565 417.645 9.03055C419.749 6.44102 421.073 4.975 423.799 4.975C426.522 4.975 427.846 6.44102 429.949 9.03055C432.082 11.6565 434.737 14.925 439.963 14.925C445.19 14.925 447.845 11.6577 449.981 9.03176C452.087 6.44102 453.411 4.975 456.139 4.975C458.869 4.975 460.195 6.44102 462.304 9.03297C464.439 11.6577 467.097 14.925 472.324 14.925C477.554 14.925 480.212 11.6577 482.347 9.03176C484.456 6.44102 485.782 4.975 488.512 4.975C489.887 4.975 491 3.86121 491 2.4875C491 1.11379 489.887 0 488.512 0Z" fill="black"/>
<path d="M326.512 0C321.282 0 318.625 3.26727 316.49 5.89324C314.381 8.48398 313.055 9.95 310.324 9.95C307.594 9.95 306.27 8.48398 304.161 5.89324C302.026 3.26727 299.369 0 294.139 0C288.911 0 286.253 3.26849 284.118 5.89445C282.014 8.48398 280.688 9.95 277.963 9.95C275.239 9.95 273.915 8.48398 271.812 5.89445C269.679 3.26849 267.024 0 261.799 0C256.573 0 253.918 3.26727 251.783 5.89324C249.679 8.48398 248.355 9.95 245.627 9.95C242.904 9.95 241.58 8.48519 239.477 5.89445C237.344 3.26849 234.689 0 229.461 0C224.236 0 221.581 3.26727 219.448 5.89324C217.344 8.48398 216.02 9.95 213.295 9.95C210.572 9.95 209.248 8.48519 207.144 5.89445C205.011 3.26849 202.356 0 197.128 0C191.903 0 189.251 3.26849 187.118 5.89445C185.014 8.48398 183.693 9.95 180.969 9.95C178.249 9.95 176.925 8.48398 174.824 5.89445C172.693 3.26849 170.04 0 164.818 0C159.59 0 156.935 3.26849 154.802 5.89445C152.698 8.48519 151.375 9.95 148.651 9.95C145.928 9.95 144.604 8.48398 142.501 5.89445C140.368 3.26849 137.713 0 132.487 0C131.113 0 130 1.11379 130 2.4875C130 3.86121 131.113 4.975 132.487 4.975C135.211 4.975 136.535 6.44102 138.638 9.03055C140.771 11.6565 143.426 14.925 148.651 14.925C153.877 14.925 156.532 11.6577 158.665 9.03176C160.768 6.44102 162.092 4.975 164.818 4.975C167.538 4.975 168.86 6.43981 170.961 9.02933C173.092 11.6565 175.747 14.925 180.969 14.925C186.195 14.925 188.847 11.6565 190.98 9.03055C193.084 6.44102 194.405 4.975 197.128 4.975C199.854 4.975 201.178 6.44102 203.282 9.03176C205.414 11.6577 208.07 14.925 213.295 14.925C218.522 14.925 221.178 11.6565 223.31 9.03055C225.414 6.43981 226.738 4.975 229.461 4.975C232.187 4.975 233.511 6.44102 235.614 9.03176C237.747 11.6577 240.402 14.925 245.627 14.925C250.855 14.925 253.51 11.6565 255.645 9.03055C257.749 6.44102 259.073 4.975 261.799 4.975C264.522 4.975 265.846 6.44102 267.949 9.03055C270.082 11.6565 272.737 14.925 277.963 14.925C283.19 14.925 285.845 11.6577 287.981 9.03176C290.087 6.44102 291.411 4.975 294.139 4.975C296.869 4.975 298.195 6.44102 300.304 9.03297C302.439 11.6577 305.097 14.925 310.324 14.925C315.554 14.925 318.212 11.6577 320.347 9.03176C322.456 6.44102 323.782 4.975 326.512 4.975C327.887 4.975 329 3.86121 329 2.4875C329 1.11379 327.887 0 326.512 0Z" fill="black"/>
</svg>
