<svg width="29" height="29" viewBox="0 0 29 29" fill="none" xmlns="http://www.w3.org/2000/svg">
<path d="M26.5492 20.4169V24.12C26.5506 24.4638 26.4802 24.804 26.3425 25.119C26.2048 25.434 26.0028 25.7167 25.7495 25.9491C25.4961 26.1815 25.1971 26.3585 24.8714 26.4686C24.5458 26.5788 24.2007 26.6197 23.8583 26.5887C20.06 26.176 16.4114 24.8781 13.2057 22.7992C10.2233 20.904 7.69469 18.3754 5.79953 15.393C3.71342 12.1728 2.41519 8.50646 2.01002 4.69104C1.97917 4.3497 2.01974 4.00567 2.12914 3.68086C2.23853 3.35606 2.41436 3.05759 2.64543 2.80446C2.8765 2.55133 3.15774 2.34909 3.47125 2.21061C3.78476 2.07213 4.12368 2.00044 4.46641 2.00012H8.16951C8.76856 1.99422 9.34931 2.20636 9.80352 2.59698C10.2577 2.9876 10.5544 3.53005 10.6382 4.12323C10.7945 5.30831 11.0844 6.4719 11.5023 7.5918C11.6684 8.03361 11.7043 8.51377 11.6059 8.97538C11.5074 9.43699 11.2787 9.86071 10.9468 10.1963L9.37919 11.764C11.1364 14.8543 13.6951 17.413 16.7854 19.1702L18.353 17.6025C18.6887 17.2706 19.1124 17.0419 19.574 16.9435C20.0356 16.845 20.5157 16.881 20.9576 17.0471C22.0775 17.465 23.2411 17.7548 24.4261 17.9111C25.0257 17.9957 25.5733 18.2977 25.9648 18.7597C26.3563 19.2217 26.5643 19.8115 26.5492 20.4169Z" stroke="#1E6B75" stroke-width="3" stroke-linecap="round" stroke-linejoin="round"/>
</svg>
