<svg width="1440" height="18" viewBox="0 0 1440 18" fill="none" xmlns="http://www.w3.org/2000/svg">
<path d="M1149.51 2.92499C1144.28 2.92499 1141.62 6.19226 1139.49 8.81822C1137.38 11.409 1136.05 12.875 1133.32 12.875C1130.59 12.875 1129.27 11.409 1127.16 8.81822C1125.03 6.19226 1122.37 2.92499 1117.14 2.92499C1111.91 2.92499 1109.25 6.19347 1107.12 8.81944C1105.01 11.409 1103.69 12.875 1100.96 12.875C1098.24 12.875 1096.92 11.409 1094.81 8.81944C1092.68 6.19347 1090.02 2.92499 1084.8 2.92499C1079.57 2.92499 1076.92 6.19226 1074.78 8.81822C1072.68 11.409 1071.36 12.875 1068.63 12.875C1065.9 12.875 1064.58 11.4102 1062.48 8.81944C1060.34 6.19347 1057.69 2.92499 1052.46 2.92499C1047.24 2.92499 1044.58 6.19226 1042.45 8.81822C1040.34 11.409 1039.02 12.875 1036.29 12.875C1033.57 12.875 1032.25 11.4102 1030.14 8.81944C1028.01 6.19347 1025.36 2.92499 1020.13 2.92499C1014.9 2.92499 1012.25 6.19347 1010.12 8.81944C1008.01 11.409 1006.69 12.875 1003.97 12.875C1001.25 12.875 999.925 11.409 997.824 8.81944C995.693 6.19347 993.04 2.92499 987.818 2.92499C982.59 2.92499 979.935 6.19347 977.802 8.81944C975.698 11.4102 974.375 12.875 971.651 12.875C968.928 12.875 967.604 11.409 965.501 8.81944C963.368 6.19347 960.713 2.92499 955.487 2.92499C954.113 2.92499 953 4.03878 953 5.41249C953 6.7862 954.113 7.89999 955.487 7.89999C958.211 7.89999 959.535 9.36601 961.638 11.9555C963.771 14.5815 966.426 17.85 971.651 17.85C976.877 17.85 979.532 14.5827 981.665 11.9567C983.768 9.36601 985.092 7.89999 987.818 7.89999C990.538 7.89999 991.86 9.36479 993.961 11.9543C996.092 14.5815 998.747 17.85 1003.97 17.85C1009.19 17.85 1011.85 14.5815 1013.98 11.9555C1016.08 9.36601 1017.41 7.89999 1020.13 7.89999C1022.85 7.89999 1024.18 9.36601 1026.28 11.9567C1028.41 14.5827 1031.07 17.85 1036.29 17.85C1041.52 17.85 1044.18 14.5815 1046.31 11.9555C1048.41 9.36479 1049.74 7.89999 1052.46 7.89999C1055.19 7.89999 1056.51 9.36601 1058.61 11.9567C1060.75 14.5827 1063.4 17.85 1068.63 17.85C1073.86 17.85 1076.51 14.5815 1078.65 11.9555C1080.75 9.36601 1082.07 7.89999 1084.8 7.89999C1087.52 7.89999 1088.85 9.36601 1090.95 11.9555C1093.08 14.5815 1095.74 17.85 1100.96 17.85C1106.19 17.85 1108.85 14.5827 1110.98 11.9567C1113.09 9.36601 1114.41 7.89999 1117.14 7.89999C1119.87 7.89999 1121.2 9.36601 1123.3 11.958C1125.44 14.5827 1128.1 17.85 1133.32 17.85C1138.55 17.85 1141.21 14.5827 1143.35 11.9567C1145.46 9.36601 1146.78 7.89999 1149.51 7.89999C1150.89 7.89999 1152 6.7862 1152 5.41249C1152 4.03878 1150.89 2.92499 1149.51 2.92499Z" fill="#7FB7BE"/>
<path d="M1441.51 2.92499C1436.28 2.92499 1433.62 6.19226 1431.49 8.81822C1429.38 11.409 1428.05 12.875 1425.32 12.875C1422.59 12.875 1421.27 11.409 1419.16 8.81822C1417.03 6.19226 1414.37 2.92499 1409.14 2.92499C1403.91 2.92499 1401.25 6.19347 1399.12 8.81944C1397.01 11.409 1395.69 12.875 1392.96 12.875C1390.24 12.875 1388.92 11.409 1386.81 8.81944C1384.68 6.19347 1382.02 2.92499 1376.8 2.92499C1371.57 2.92499 1368.92 6.19226 1366.78 8.81822C1364.68 11.409 1363.36 12.875 1360.63 12.875C1357.9 12.875 1356.58 11.4102 1354.48 8.81944C1352.34 6.19347 1349.69 2.92499 1344.46 2.92499C1339.24 2.92499 1336.58 6.19226 1334.45 8.81822C1332.34 11.409 1331.02 12.875 1328.29 12.875C1325.57 12.875 1324.25 11.4102 1322.14 8.81944C1320.01 6.19347 1317.36 2.92499 1312.13 2.92499C1306.9 2.92499 1304.25 6.19347 1302.12 8.81944C1300.01 11.409 1298.69 12.875 1295.97 12.875C1293.25 12.875 1291.92 11.409 1289.82 8.81944C1287.69 6.19347 1285.04 2.92499 1279.82 2.92499C1274.59 2.92499 1271.93 6.19347 1269.8 8.81944C1267.7 11.4102 1266.37 12.875 1263.65 12.875C1260.93 12.875 1259.6 11.409 1257.5 8.81944C1255.37 6.19347 1252.71 2.92499 1247.49 2.92499C1246.11 2.92499 1245 4.03878 1245 5.41249C1245 6.7862 1246.11 7.89999 1247.49 7.89999C1250.21 7.89999 1251.53 9.36601 1253.64 11.9555C1255.77 14.5815 1258.43 17.85 1263.65 17.85C1268.88 17.85 1271.53 14.5827 1273.66 11.9567C1275.77 9.36601 1277.09 7.89999 1279.82 7.89999C1282.54 7.89999 1283.86 9.36479 1285.96 11.9543C1288.09 14.5815 1290.75 17.85 1295.97 17.85C1301.19 17.85 1303.85 14.5815 1305.98 11.9555C1308.08 9.36601 1309.41 7.89999 1312.13 7.89999C1314.85 7.89999 1316.18 9.36601 1318.28 11.9567C1320.41 14.5827 1323.07 17.85 1328.29 17.85C1333.52 17.85 1336.18 14.5815 1338.31 11.9555C1340.41 9.36479 1341.74 7.89999 1344.46 7.89999C1347.19 7.89999 1348.51 9.36601 1350.61 11.9567C1352.75 14.5827 1355.4 17.85 1360.63 17.85C1365.86 17.85 1368.51 14.5815 1370.65 11.9555C1372.75 9.36601 1374.07 7.89999 1376.8 7.89999C1379.52 7.89999 1380.85 9.36601 1382.95 11.9555C1385.08 14.5815 1387.74 17.85 1392.96 17.85C1398.19 17.85 1400.85 14.5827 1402.98 11.9567C1405.09 9.36601 1406.41 7.89999 1409.14 7.89999C1411.87 7.89999 1413.2 9.36601 1415.3 11.958C1417.44 14.5827 1420.1 17.85 1425.32 17.85C1430.55 17.85 1433.21 14.5827 1435.35 11.9567C1437.46 9.36601 1438.78 7.89999 1441.51 7.89999C1442.89 7.89999 1444 6.7862 1444 5.41249C1444 4.03878 1442.89 2.92499 1441.51 2.92499Z" fill="#7FB7BE"/>
<path d="M1279.51 2.92499C1274.28 2.92499 1271.62 6.19226 1269.49 8.81822C1267.38 11.409 1266.05 12.875 1263.32 12.875C1260.59 12.875 1259.27 11.409 1257.16 8.81822C1255.03 6.19226 1252.37 2.92499 1247.14 2.92499C1241.91 2.92499 1239.25 6.19347 1237.12 8.81944C1235.01 11.409 1233.69 12.875 1230.96 12.875C1228.24 12.875 1226.92 11.409 1224.81 8.81944C1222.68 6.19347 1220.02 2.92499 1214.8 2.92499C1209.57 2.92499 1206.92 6.19226 1204.78 8.81822C1202.68 11.409 1201.36 12.875 1198.63 12.875C1195.9 12.875 1194.58 11.4102 1192.48 8.81944C1190.34 6.19347 1187.69 2.92499 1182.46 2.92499C1177.24 2.92499 1174.58 6.19226 1172.45 8.81822C1170.34 11.409 1169.02 12.875 1166.29 12.875C1163.57 12.875 1162.25 11.4102 1160.14 8.81944C1158.01 6.19347 1155.36 2.92499 1150.13 2.92499C1144.9 2.92499 1142.25 6.19347 1140.12 8.81944C1138.01 11.409 1136.69 12.875 1133.97 12.875C1131.25 12.875 1129.92 11.409 1127.82 8.81944C1125.69 6.19347 1123.04 2.92499 1117.82 2.92499C1112.59 2.92499 1109.93 6.19347 1107.8 8.81944C1105.7 11.4102 1104.37 12.875 1101.65 12.875C1098.93 12.875 1097.6 11.409 1095.5 8.81944C1093.37 6.19347 1090.71 2.92499 1085.49 2.92499C1084.11 2.92499 1083 4.03878 1083 5.41249C1083 6.7862 1084.11 7.89999 1085.49 7.89999C1088.21 7.89999 1089.53 9.36601 1091.64 11.9555C1093.77 14.5815 1096.43 17.85 1101.65 17.85C1106.88 17.85 1109.53 14.5827 1111.66 11.9567C1113.77 9.36601 1115.09 7.89999 1117.82 7.89999C1120.54 7.89999 1121.86 9.36479 1123.96 11.9543C1126.09 14.5815 1128.75 17.85 1133.97 17.85C1139.19 17.85 1141.85 14.5815 1143.98 11.9555C1146.08 9.36601 1147.41 7.89999 1150.13 7.89999C1152.85 7.89999 1154.18 9.36601 1156.28 11.9567C1158.41 14.5827 1161.07 17.85 1166.29 17.85C1171.52 17.85 1174.18 14.5815 1176.31 11.9555C1178.41 9.36479 1179.74 7.89999 1182.46 7.89999C1185.19 7.89999 1186.51 9.36601 1188.61 11.9567C1190.75 14.5827 1193.4 17.85 1198.63 17.85C1203.86 17.85 1206.51 14.5815 1208.65 11.9555C1210.75 9.36601 1212.07 7.89999 1214.8 7.89999C1217.52 7.89999 1218.85 9.36601 1220.95 11.9555C1223.08 14.5815 1225.74 17.85 1230.96 17.85C1236.19 17.85 1238.85 14.5827 1240.98 11.9567C1243.09 9.36601 1244.41 7.89999 1247.14 7.89999C1249.87 7.89999 1251.2 9.36601 1253.3 11.958C1255.44 14.5827 1258.1 17.85 1263.32 17.85C1268.55 17.85 1271.21 14.5827 1273.35 11.9567C1275.46 9.36601 1276.78 7.89999 1279.51 7.89999C1280.89 7.89999 1282 6.7862 1282 5.41249C1282 4.03878 1280.89 2.92499 1279.51 2.92499Z" fill="#7FB7BE"/>
<path d="M1149.51 0C1144.28 0 1141.62 3.26727 1139.49 5.89324C1137.38 8.48398 1136.05 9.95 1133.32 9.95C1130.59 9.95 1129.27 8.48398 1127.16 5.89324C1125.03 3.26727 1122.37 0 1117.14 0C1111.91 0 1109.25 3.26849 1107.12 5.89445C1105.01 8.48398 1103.69 9.95 1100.96 9.95C1098.24 9.95 1096.92 8.48398 1094.81 5.89445C1092.68 3.26849 1090.02 0 1084.8 0C1079.57 0 1076.92 3.26727 1074.78 5.89324C1072.68 8.48398 1071.36 9.95 1068.63 9.95C1065.9 9.95 1064.58 8.48519 1062.48 5.89445C1060.34 3.26849 1057.69 0 1052.46 0C1047.24 0 1044.58 3.26727 1042.45 5.89324C1040.34 8.48398 1039.02 9.95 1036.29 9.95C1033.57 9.95 1032.25 8.48519 1030.14 5.89445C1028.01 3.26849 1025.36 0 1020.13 0C1014.9 0 1012.25 3.26849 1010.12 5.89445C1008.01 8.48398 1006.69 9.95 1003.97 9.95C1001.25 9.95 999.925 8.48398 997.824 5.89445C995.693 3.26849 993.04 0 987.818 0C982.59 0 979.935 3.26849 977.802 5.89445C975.698 8.48519 974.375 9.95 971.651 9.95C968.928 9.95 967.604 8.48398 965.501 5.89445C963.368 3.26849 960.713 0 955.487 0C954.113 0 953 1.11379 953 2.4875C953 3.86121 954.113 4.975 955.487 4.975C958.211 4.975 959.535 6.44102 961.638 9.03055C963.771 11.6565 966.426 14.925 971.651 14.925C976.877 14.925 979.532 11.6577 981.665 9.03176C983.768 6.44102 985.092 4.975 987.818 4.975C990.538 4.975 991.86 6.43981 993.961 9.02933C996.092 11.6565 998.747 14.925 1003.97 14.925C1009.19 14.925 1011.85 11.6565 1013.98 9.03055C1016.08 6.44102 1017.41 4.975 1020.13 4.975C1022.85 4.975 1024.18 6.44102 1026.28 9.03176C1028.41 11.6577 1031.07 14.925 1036.29 14.925C1041.52 14.925 1044.18 11.6565 1046.31 9.03055C1048.41 6.43981 1049.74 4.975 1052.46 4.975C1055.19 4.975 1056.51 6.44102 1058.61 9.03176C1060.75 11.6577 1063.4 14.925 1068.63 14.925C1073.86 14.925 1076.51 11.6565 1078.65 9.03055C1080.75 6.44102 1082.07 4.975 1084.8 4.975C1087.52 4.975 1088.85 6.44102 1090.95 9.03055C1093.08 11.6565 1095.74 14.925 1100.96 14.925C1106.19 14.925 1108.85 11.6577 1110.98 9.03176C1113.09 6.44102 1114.41 4.975 1117.14 4.975C1119.87 4.975 1121.2 6.44102 1123.3 9.03297C1125.44 11.6577 1128.1 14.925 1133.32 14.925C1138.55 14.925 1141.21 11.6577 1143.35 9.03176C1145.46 6.44102 1146.78 4.975 1149.51 4.975C1150.89 4.975 1152 3.86121 1152 2.4875C1152 1.11379 1150.89 0 1149.51 0Z" fill="#9ADCE4"/>
<path d="M1441.51 0C1436.28 0 1433.62 3.26727 1431.49 5.89324C1429.38 8.48398 1428.05 9.95 1425.32 9.95C1422.59 9.95 1421.27 8.48398 1419.16 5.89324C1417.03 3.26727 1414.37 0 1409.14 0C1403.91 0 1401.25 3.26849 1399.12 5.89445C1397.01 8.48398 1395.69 9.95 1392.96 9.95C1390.24 9.95 1388.92 8.48398 1386.81 5.89445C1384.68 3.26849 1382.02 0 1376.8 0C1371.57 0 1368.92 3.26727 1366.78 5.89324C1364.68 8.48398 1363.36 9.95 1360.63 9.95C1357.9 9.95 1356.58 8.48519 1354.48 5.89445C1352.34 3.26849 1349.69 0 1344.46 0C1339.24 0 1336.58 3.26727 1334.45 5.89324C1332.34 8.48398 1331.02 9.95 1328.29 9.95C1325.57 9.95 1324.25 8.48519 1322.14 5.89445C1320.01 3.26849 1317.36 0 1312.13 0C1306.9 0 1304.25 3.26849 1302.12 5.89445C1300.01 8.48398 1298.69 9.95 1295.97 9.95C1293.25 9.95 1291.92 8.48398 1289.82 5.89445C1287.69 3.26849 1285.04 0 1279.82 0C1274.59 0 1271.93 3.26849 1269.8 5.89445C1267.7 8.48519 1266.37 9.95 1263.65 9.95C1260.93 9.95 1259.6 8.48398 1257.5 5.89445C1255.37 3.26849 1252.71 0 1247.49 0C1246.11 0 1245 1.11379 1245 2.4875C1245 3.86121 1246.11 4.975 1247.49 4.975C1250.21 4.975 1251.53 6.44102 1253.64 9.03055C1255.77 11.6565 1258.43 14.925 1263.65 14.925C1268.88 14.925 1271.53 11.6577 1273.66 9.03176C1275.77 6.44102 1277.09 4.975 1279.82 4.975C1282.54 4.975 1283.86 6.43981 1285.96 9.02933C1288.09 11.6565 1290.75 14.925 1295.97 14.925C1301.19 14.925 1303.85 11.6565 1305.98 9.03055C1308.08 6.44102 1309.41 4.975 1312.13 4.975C1314.85 4.975 1316.18 6.44102 1318.28 9.03176C1320.41 11.6577 1323.07 14.925 1328.29 14.925C1333.52 14.925 1336.18 11.6565 1338.31 9.03055C1340.41 6.43981 1341.74 4.975 1344.46 4.975C1347.19 4.975 1348.51 6.44102 1350.61 9.03176C1352.75 11.6577 1355.4 14.925 1360.63 14.925C1365.86 14.925 1368.51 11.6565 1370.65 9.03055C1372.75 6.44102 1374.07 4.975 1376.8 4.975C1379.52 4.975 1380.85 6.44102 1382.95 9.03055C1385.08 11.6565 1387.74 14.925 1392.96 14.925C1398.19 14.925 1400.85 11.6577 1402.98 9.03176C1405.09 6.44102 1406.41 4.975 1409.14 4.975C1411.87 4.975 1413.2 6.44102 1415.3 9.03297C1417.44 11.6577 1420.1 14.925 1425.32 14.925C1430.55 14.925 1433.21 11.6577 1435.35 9.03176C1437.46 6.44102 1438.78 4.975 1441.51 4.975C1442.89 4.975 1444 3.86121 1444 2.4875C1444 1.11379 1442.89 0 1441.51 0Z" fill="#9ADCE4"/>
<path d="M1279.51 0C1274.28 0 1271.62 3.26727 1269.49 5.89324C1267.38 8.48398 1266.05 9.95 1263.32 9.95C1260.59 9.95 1259.27 8.48398 1257.16 5.89324C1255.03 3.26727 1252.37 0 1247.14 0C1241.91 0 1239.25 3.26849 1237.12 5.89445C1235.01 8.48398 1233.69 9.95 1230.96 9.95C1228.24 9.95 1226.92 8.48398 1224.81 5.89445C1222.68 3.26849 1220.02 0 1214.8 0C1209.57 0 1206.92 3.26727 1204.78 5.89324C1202.68 8.48398 1201.36 9.95 1198.63 9.95C1195.9 9.95 1194.58 8.48519 1192.48 5.89445C1190.34 3.26849 1187.69 0 1182.46 0C1177.24 0 1174.58 3.26727 1172.45 5.89324C1170.34 8.48398 1169.02 9.95 1166.29 9.95C1163.57 9.95 1162.25 8.48519 1160.14 5.89445C1158.01 3.26849 1155.36 0 1150.13 0C1144.9 0 1142.25 3.26849 1140.12 5.89445C1138.01 8.48398 1136.69 9.95 1133.97 9.95C1131.25 9.95 1129.92 8.48398 1127.82 5.89445C1125.69 3.26849 1123.04 0 1117.82 0C1112.59 0 1109.93 3.26849 1107.8 5.89445C1105.7 8.48519 1104.37 9.95 1101.65 9.95C1098.93 9.95 1097.6 8.48398 1095.5 5.89445C1093.37 3.26849 1090.71 0 1085.49 0C1084.11 0 1083 1.11379 1083 2.4875C1083 3.86121 1084.11 4.975 1085.49 4.975C1088.21 4.975 1089.53 6.44102 1091.64 9.03055C1093.77 11.6565 1096.43 14.925 1101.65 14.925C1106.88 14.925 1109.53 11.6577 1111.66 9.03176C1113.77 6.44102 1115.09 4.975 1117.82 4.975C1120.54 4.975 1121.86 6.43981 1123.96 9.02933C1126.09 11.6565 1128.75 14.925 1133.97 14.925C1139.19 14.925 1141.85 11.6565 1143.98 9.03055C1146.08 6.44102 1147.41 4.975 1150.13 4.975C1152.85 4.975 1154.18 6.44102 1156.28 9.03176C1158.41 11.6577 1161.07 14.925 1166.29 14.925C1171.52 14.925 1174.18 11.6565 1176.31 9.03055C1178.41 6.43981 1179.74 4.975 1182.46 4.975C1185.19 4.975 1186.51 6.44102 1188.61 9.03176C1190.75 11.6577 1193.4 14.925 1198.63 14.925C1203.86 14.925 1206.51 11.6565 1208.65 9.03055C1210.75 6.44102 1212.07 4.975 1214.8 4.975C1217.52 4.975 1218.85 6.44102 1220.95 9.03055C1223.08 11.6565 1225.74 14.925 1230.96 14.925C1236.19 14.925 1238.85 11.6577 1240.98 9.03176C1243.09 6.44102 1244.41 4.975 1247.14 4.975C1249.87 4.975 1251.2 6.44102 1253.3 9.03297C1255.44 11.6577 1258.1 14.925 1263.32 14.925C1268.55 14.925 1271.21 11.6577 1273.35 9.03176C1275.46 6.44102 1276.78 4.975 1279.51 4.975C1280.89 4.975 1282 3.86121 1282 2.4875C1282 1.11379 1280.89 0 1279.51 0Z" fill="#9ADCE4"/>
<path d="M189.512 2.92499C184.282 2.92499 181.625 6.19226 179.49 8.81822C177.381 11.409 176.055 12.875 173.324 12.875C170.594 12.875 169.27 11.409 167.161 8.81822C165.026 6.19226 162.369 2.92499 157.139 2.92499C151.911 2.92499 149.253 6.19347 147.118 8.81944C145.014 11.409 143.688 12.875 140.963 12.875C138.239 12.875 136.915 11.409 134.812 8.81944C132.679 6.19347 130.024 2.92499 124.799 2.92499C119.573 2.92499 116.918 6.19226 114.783 8.81822C112.679 11.409 111.355 12.875 108.627 12.875C105.904 12.875 104.58 11.4102 102.477 8.81944C100.344 6.19347 97.6888 2.92499 92.4611 2.92499C87.2359 2.92499 84.5808 6.19226 82.448 8.81822C80.3443 11.409 79.0204 12.875 76.2948 12.875C73.5717 12.875 72.2478 11.4102 70.1441 8.81944C68.0112 6.19347 65.3561 2.92499 60.1285 2.92499C54.9033 2.92499 52.2506 6.19347 50.1178 8.81944C48.0141 11.409 46.6926 12.875 43.9695 12.875C41.2488 12.875 39.9248 11.409 37.8236 8.81944C35.6932 6.19347 33.0405 2.92499 27.8177 2.92499C22.5901 2.92499 19.935 6.19347 17.8021 8.81944C15.6984 11.4102 14.3745 12.875 11.6514 12.875C8.92826 12.875 7.60435 11.409 5.50066 8.81944C3.36782 6.19347 0.712707 2.92499 -4.5125 2.92499C-5.88743 2.92499 -7 4.03878 -7 5.41249C-7 6.7862 -5.88743 7.89999 -4.5125 7.89999C-1.78937 7.89999 -0.465454 9.36601 1.63823 11.9555C3.77107 14.5815 6.42618 17.85 11.6514 17.85C16.8766 17.85 19.5317 14.5827 21.6646 11.9567C23.7682 9.36601 25.0922 7.89999 27.8177 7.89999C30.5384 7.89999 31.8599 9.36479 33.9612 11.9543C36.0916 14.5815 38.7467 17.85 43.9695 17.85C49.1947 17.85 51.8473 14.5815 53.9802 11.9555C56.0839 9.36601 57.4054 7.89999 60.1285 7.89999C62.8541 7.89999 64.178 9.36601 66.2817 11.9567C68.4145 14.5827 71.0696 17.85 76.2948 17.85C81.5224 17.85 84.1776 14.5815 86.3104 11.9555C88.4141 9.36479 89.738 7.89999 92.4611 7.89999C95.1867 7.89999 96.5106 9.36601 98.6143 11.9567C100.747 14.5827 103.402 17.85 108.627 17.85C113.855 17.85 116.51 14.5815 118.645 11.9555C120.749 9.36601 122.073 7.89999 124.799 7.89999C127.522 7.89999 128.846 9.36601 130.949 11.9555C133.082 14.5815 135.737 17.85 140.963 17.85C146.19 17.85 148.845 14.5827 150.981 11.9567C153.087 9.36601 154.411 7.89999 157.139 7.89999C159.869 7.89999 161.195 9.36601 163.304 11.958C165.439 14.5827 168.097 17.85 173.324 17.85C178.554 17.85 181.212 14.5827 183.347 11.9567C185.456 9.36601 186.782 7.89999 189.512 7.89999C190.887 7.89999 192 6.7862 192 5.41249C192 4.03878 190.887 2.92499 189.512 2.92499Z" fill="#7FB7BE"/>
<path d="M481.512 2.92499C476.282 2.92499 473.625 6.19226 471.49 8.81822C469.381 11.409 468.055 12.875 465.324 12.875C462.594 12.875 461.27 11.409 459.161 8.81822C457.026 6.19226 454.369 2.92499 449.139 2.92499C443.911 2.92499 441.253 6.19347 439.118 8.81944C437.014 11.409 435.688 12.875 432.963 12.875C430.239 12.875 428.915 11.409 426.812 8.81944C424.679 6.19347 422.024 2.92499 416.799 2.92499C411.573 2.92499 408.918 6.19226 406.783 8.81822C404.679 11.409 403.355 12.875 400.627 12.875C397.904 12.875 396.58 11.4102 394.477 8.81944C392.344 6.19347 389.689 2.92499 384.461 2.92499C379.236 2.92499 376.581 6.19226 374.448 8.81822C372.344 11.409 371.02 12.875 368.295 12.875C365.572 12.875 364.248 11.4102 362.144 8.81944C360.011 6.19347 357.356 2.92499 352.128 2.92499C346.903 2.92499 344.251 6.19347 342.118 8.81944C340.014 11.409 338.693 12.875 335.969 12.875C333.249 12.875 331.925 11.409 329.824 8.81944C327.693 6.19347 325.04 2.92499 319.818 2.92499C314.59 2.92499 311.935 6.19347 309.802 8.81944C307.698 11.4102 306.375 12.875 303.651 12.875C300.928 12.875 299.604 11.409 297.501 8.81944C295.368 6.19347 292.713 2.92499 287.487 2.92499C286.113 2.92499 285 4.03878 285 5.41249C285 6.7862 286.113 7.89999 287.487 7.89999C290.211 7.89999 291.535 9.36601 293.638 11.9555C295.771 14.5815 298.426 17.85 303.651 17.85C308.877 17.85 311.532 14.5827 313.665 11.9567C315.768 9.36601 317.092 7.89999 319.818 7.89999C322.538 7.89999 323.86 9.36479 325.961 11.9543C328.092 14.5815 330.747 17.85 335.969 17.85C341.195 17.85 343.847 14.5815 345.98 11.9555C348.084 9.36601 349.405 7.89999 352.128 7.89999C354.854 7.89999 356.178 9.36601 358.282 11.9567C360.414 14.5827 363.07 17.85 368.295 17.85C373.522 17.85 376.178 14.5815 378.31 11.9555C380.414 9.36479 381.738 7.89999 384.461 7.89999C387.187 7.89999 388.511 9.36601 390.614 11.9567C392.747 14.5827 395.402 17.85 400.627 17.85C405.855 17.85 408.51 14.5815 410.645 11.9555C412.749 9.36601 414.073 7.89999 416.799 7.89999C419.522 7.89999 420.846 9.36601 422.949 11.9555C425.082 14.5815 427.737 17.85 432.963 17.85C438.19 17.85 440.845 14.5827 442.981 11.9567C445.087 9.36601 446.411 7.89999 449.139 7.89999C451.869 7.89999 453.195 9.36601 455.304 11.958C457.439 14.5827 460.097 17.85 465.324 17.85C470.554 17.85 473.212 14.5827 475.347 11.9567C477.456 9.36601 478.782 7.89999 481.512 7.89999C482.887 7.89999 484 6.7862 484 5.41249C484 4.03878 482.887 2.92499 481.512 2.92499Z" fill="#7FB7BE"/>
<path d="M319.512 2.92499C314.282 2.92499 311.625 6.19226 309.49 8.81822C307.381 11.409 306.055 12.875 303.324 12.875C300.594 12.875 299.27 11.409 297.161 8.81822C295.026 6.19226 292.369 2.92499 287.139 2.92499C281.911 2.92499 279.253 6.19347 277.118 8.81944C275.014 11.409 273.688 12.875 270.963 12.875C268.239 12.875 266.915 11.409 264.812 8.81944C262.679 6.19347 260.024 2.92499 254.799 2.92499C249.573 2.92499 246.918 6.19226 244.783 8.81822C242.679 11.409 241.355 12.875 238.627 12.875C235.904 12.875 234.58 11.4102 232.477 8.81944C230.344 6.19347 227.689 2.92499 222.461 2.92499C217.236 2.92499 214.581 6.19226 212.448 8.81822C210.344 11.409 209.02 12.875 206.295 12.875C203.572 12.875 202.248 11.4102 200.144 8.81944C198.011 6.19347 195.356 2.92499 190.128 2.92499C184.903 2.92499 182.251 6.19347 180.118 8.81944C178.014 11.409 176.693 12.875 173.969 12.875C171.249 12.875 169.925 11.409 167.824 8.81944C165.693 6.19347 163.04 2.92499 157.818 2.92499C152.59 2.92499 149.935 6.19347 147.802 8.81944C145.698 11.4102 144.375 12.875 141.651 12.875C138.928 12.875 137.604 11.409 135.501 8.81944C133.368 6.19347 130.713 2.92499 125.487 2.92499C124.113 2.92499 123 4.03878 123 5.41249C123 6.7862 124.113 7.89999 125.487 7.89999C128.211 7.89999 129.535 9.36601 131.638 11.9555C133.771 14.5815 136.426 17.85 141.651 17.85C146.877 17.85 149.532 14.5827 151.665 11.9567C153.768 9.36601 155.092 7.89999 157.818 7.89999C160.538 7.89999 161.86 9.36479 163.961 11.9543C166.092 14.5815 168.747 17.85 173.969 17.85C179.195 17.85 181.847 14.5815 183.98 11.9555C186.084 9.36601 187.405 7.89999 190.128 7.89999C192.854 7.89999 194.178 9.36601 196.282 11.9567C198.414 14.5827 201.07 17.85 206.295 17.85C211.522 17.85 214.178 14.5815 216.31 11.9555C218.414 9.36479 219.738 7.89999 222.461 7.89999C225.187 7.89999 226.511 9.36601 228.614 11.9567C230.747 14.5827 233.402 17.85 238.627 17.85C243.855 17.85 246.51 14.5815 248.645 11.9555C250.749 9.36601 252.073 7.89999 254.799 7.89999C257.522 7.89999 258.846 9.36601 260.949 11.9555C263.082 14.5815 265.737 17.85 270.963 17.85C276.19 17.85 278.845 14.5827 280.981 11.9567C283.087 9.36601 284.411 7.89999 287.139 7.89999C289.869 7.89999 291.195 9.36601 293.304 11.958C295.439 14.5827 298.097 17.85 303.324 17.85C308.554 17.85 311.212 14.5827 313.347 11.9567C315.456 9.36601 316.782 7.89999 319.512 7.89999C320.887 7.89999 322 6.7862 322 5.41249C322 4.03878 320.887 2.92499 319.512 2.92499Z" fill="#7FB7BE"/>
<path d="M189.512 0C184.282 0 181.625 3.26727 179.49 5.89324C177.381 8.48398 176.055 9.95 173.324 9.95C170.594 9.95 169.27 8.48398 167.161 5.89324C165.026 3.26727 162.369 0 157.139 0C151.911 0 149.253 3.26849 147.118 5.89445C145.014 8.48398 143.688 9.95 140.963 9.95C138.239 9.95 136.915 8.48398 134.812 5.89445C132.679 3.26849 130.024 0 124.799 0C119.573 0 116.918 3.26727 114.783 5.89324C112.679 8.48398 111.355 9.95 108.627 9.95C105.904 9.95 104.58 8.48519 102.477 5.89445C100.344 3.26849 97.6888 0 92.4611 0C87.2359 0 84.5808 3.26727 82.448 5.89324C80.3443 8.48398 79.0204 9.95 76.2948 9.95C73.5717 9.95 72.2478 8.48519 70.1441 5.89445C68.0112 3.26849 65.3561 0 60.1285 0C54.9033 0 52.2506 3.26849 50.1178 5.89445C48.0141 8.48398 46.6926 9.95 43.9695 9.95C41.2488 9.95 39.9248 8.48398 37.8236 5.89445C35.6932 3.26849 33.0405 0 27.8177 0C22.5901 0 19.935 3.26849 17.8021 5.89445C15.6984 8.48519 14.3745 9.95 11.6514 9.95C8.92826 9.95 7.60435 8.48398 5.50066 5.89445C3.36782 3.26849 0.712707 0 -4.5125 0C-5.88743 0 -7 1.11379 -7 2.4875C-7 3.86121 -5.88743 4.975 -4.5125 4.975C-1.78937 4.975 -0.465454 6.44102 1.63823 9.03055C3.77107 11.6565 6.42618 14.925 11.6514 14.925C16.8766 14.925 19.5317 11.6577 21.6646 9.03176C23.7682 6.44102 25.0922 4.975 27.8177 4.975C30.5384 4.975 31.8599 6.43981 33.9612 9.02933C36.0916 11.6565 38.7467 14.925 43.9695 14.925C49.1947 14.925 51.8473 11.6565 53.9802 9.03055C56.0839 6.44102 57.4054 4.975 60.1285 4.975C62.8541 4.975 64.178 6.44102 66.2817 9.03176C68.4145 11.6577 71.0696 14.925 76.2948 14.925C81.5224 14.925 84.1776 11.6565 86.3104 9.03055C88.4141 6.43981 89.738 4.975 92.4611 4.975C95.1867 4.975 96.5106 6.44102 98.6143 9.03176C100.747 11.6577 103.402 14.925 108.627 14.925C113.855 14.925 116.51 11.6565 118.645 9.03055C120.749 6.44102 122.073 4.975 124.799 4.975C127.522 4.975 128.846 6.44102 130.949 9.03055C133.082 11.6565 135.737 14.925 140.963 14.925C146.19 14.925 148.845 11.6577 150.981 9.03176C153.087 6.44102 154.411 4.975 157.139 4.975C159.869 4.975 161.195 6.44102 163.304 9.03297C165.439 11.6577 168.097 14.925 173.324 14.925C178.554 14.925 181.212 11.6577 183.347 9.03176C185.456 6.44102 186.782 4.975 189.512 4.975C190.887 4.975 192 3.86121 192 2.4875C192 1.11379 190.887 0 189.512 0Z" fill="#9ADCE4"/>
<path d="M481.512 0C476.282 0 473.625 3.26727 471.49 5.89324C469.381 8.48398 468.055 9.95 465.324 9.95C462.594 9.95 461.27 8.48398 459.161 5.89324C457.026 3.26727 454.369 0 449.139 0C443.911 0 441.253 3.26849 439.118 5.89445C437.014 8.48398 435.688 9.95 432.963 9.95C430.239 9.95 428.915 8.48398 426.812 5.89445C424.679 3.26849 422.024 0 416.799 0C411.573 0 408.918 3.26727 406.783 5.89324C404.679 8.48398 403.355 9.95 400.627 9.95C397.904 9.95 396.58 8.48519 394.477 5.89445C392.344 3.26849 389.689 0 384.461 0C379.236 0 376.581 3.26727 374.448 5.89324C372.344 8.48398 371.02 9.95 368.295 9.95C365.572 9.95 364.248 8.48519 362.144 5.89445C360.011 3.26849 357.356 0 352.128 0C346.903 0 344.251 3.26849 342.118 5.89445C340.014 8.48398 338.693 9.95 335.969 9.95C333.249 9.95 331.925 8.48398 329.824 5.89445C327.693 3.26849 325.04 0 319.818 0C314.59 0 311.935 3.26849 309.802 5.89445C307.698 8.48519 306.375 9.95 303.651 9.95C300.928 9.95 299.604 8.48398 297.501 5.89445C295.368 3.26849 292.713 0 287.487 0C286.113 0 285 1.11379 285 2.4875C285 3.86121 286.113 4.975 287.487 4.975C290.211 4.975 291.535 6.44102 293.638 9.03055C295.771 11.6565 298.426 14.925 303.651 14.925C308.877 14.925 311.532 11.6577 313.665 9.03176C315.768 6.44102 317.092 4.975 319.818 4.975C322.538 4.975 323.86 6.43981 325.961 9.02933C328.092 11.6565 330.747 14.925 335.969 14.925C341.195 14.925 343.847 11.6565 345.98 9.03055C348.084 6.44102 349.405 4.975 352.128 4.975C354.854 4.975 356.178 6.44102 358.282 9.03176C360.414 11.6577 363.07 14.925 368.295 14.925C373.522 14.925 376.178 11.6565 378.31 9.03055C380.414 6.43981 381.738 4.975 384.461 4.975C387.187 4.975 388.511 6.44102 390.614 9.03176C392.747 11.6577 395.402 14.925 400.627 14.925C405.855 14.925 408.51 11.6565 410.645 9.03055C412.749 6.44102 414.073 4.975 416.799 4.975C419.522 4.975 420.846 6.44102 422.949 9.03055C425.082 11.6565 427.737 14.925 432.963 14.925C438.19 14.925 440.845 11.6577 442.981 9.03176C445.087 6.44102 446.411 4.975 449.139 4.975C451.869 4.975 453.195 6.44102 455.304 9.03297C457.439 11.6577 460.097 14.925 465.324 14.925C470.554 14.925 473.212 11.6577 475.347 9.03176C477.456 6.44102 478.782 4.975 481.512 4.975C482.887 4.975 484 3.86121 484 2.4875C484 1.11379 482.887 0 481.512 0Z" fill="#9ADCE4"/>
<path d="M319.512 0C314.282 0 311.625 3.26727 309.49 5.89324C307.381 8.48398 306.055 9.95 303.324 9.95C300.594 9.95 299.27 8.48398 297.161 5.89324C295.026 3.26727 292.369 0 287.139 0C281.911 0 279.253 3.26849 277.118 5.89445C275.014 8.48398 273.688 9.95 270.963 9.95C268.239 9.95 266.915 8.48398 264.812 5.89445C262.679 3.26849 260.024 0 254.799 0C249.573 0 246.918 3.26727 244.783 5.89324C242.679 8.48398 241.355 9.95 238.627 9.95C235.904 9.95 234.58 8.48519 232.477 5.89445C230.344 3.26849 227.689 0 222.461 0C217.236 0 214.581 3.26727 212.448 5.89324C210.344 8.48398 209.02 9.95 206.295 9.95C203.572 9.95 202.248 8.48519 200.144 5.89445C198.011 3.26849 195.356 0 190.128 0C184.903 0 182.251 3.26849 180.118 5.89445C178.014 8.48398 176.693 9.95 173.969 9.95C171.249 9.95 169.925 8.48398 167.824 5.89445C165.693 3.26849 163.04 0 157.818 0C152.59 0 149.935 3.26849 147.802 5.89445C145.698 8.48519 144.375 9.95 141.651 9.95C138.928 9.95 137.604 8.48398 135.501 5.89445C133.368 3.26849 130.713 0 125.487 0C124.113 0 123 1.11379 123 2.4875C123 3.86121 124.113 4.975 125.487 4.975C128.211 4.975 129.535 6.44102 131.638 9.03055C133.771 11.6565 136.426 14.925 141.651 14.925C146.877 14.925 149.532 11.6577 151.665 9.03176C153.768 6.44102 155.092 4.975 157.818 4.975C160.538 4.975 161.86 6.43981 163.961 9.02933C166.092 11.6565 168.747 14.925 173.969 14.925C179.195 14.925 181.847 11.6565 183.98 9.03055C186.084 6.44102 187.405 4.975 190.128 4.975C192.854 4.975 194.178 6.44102 196.282 9.03176C198.414 11.6577 201.07 14.925 206.295 14.925C211.522 14.925 214.178 11.6565 216.31 9.03055C218.414 6.43981 219.738 4.975 222.461 4.975C225.187 4.975 226.511 6.44102 228.614 9.03176C230.747 11.6577 233.402 14.925 238.627 14.925C243.855 14.925 246.51 11.6565 248.645 9.03055C250.749 6.44102 252.073 4.975 254.799 4.975C257.522 4.975 258.846 6.44102 260.949 9.03055C263.082 11.6565 265.737 14.925 270.963 14.925C276.19 14.925 278.845 11.6577 280.981 9.03176C283.087 6.44102 284.411 4.975 287.139 4.975C289.869 4.975 291.195 6.44102 293.304 9.03297C295.439 11.6577 298.097 14.925 303.324 14.925C308.554 14.925 311.212 11.6577 313.347 9.03176C315.456 6.44102 316.782 4.975 319.512 4.975C320.887 4.975 322 3.86121 322 2.4875C322 1.11379 320.887 0 319.512 0Z" fill="#9ADCE4"/>
</svg>
