<svg width="1431" height="15" viewBox="0 0 1431 15" fill="none" xmlns="http://www.w3.org/2000/svg">
<path d="M1136.51 0C1131.28 0 1128.62 3.26727 1126.49 5.89324C1124.38 8.48398 1123.05 9.95 1120.32 9.95C1117.59 9.95 1116.27 8.48398 1114.16 5.89324C1112.03 3.26727 1109.37 0 1104.14 0C1098.91 0 1096.25 3.26849 1094.12 5.89445C1092.01 8.48398 1090.69 9.95 1087.96 9.95C1085.24 9.95 1083.92 8.48398 1081.81 5.89445C1079.68 3.26849 1077.02 0 1071.8 0C1066.57 0 1063.92 3.26727 1061.78 5.89324C1059.68 8.48398 1058.36 9.95 1055.63 9.95C1052.9 9.95 1051.58 8.48519 1049.48 5.89445C1047.34 3.26849 1044.69 0 1039.46 0C1034.24 0 1031.58 3.26727 1029.45 5.89324C1027.34 8.48398 1026.02 9.95 1023.29 9.95C1020.57 9.95 1019.25 8.48519 1017.14 5.89445C1015.01 3.26849 1012.36 0 1007.13 0C1001.9 0 999.251 3.26849 997.118 5.89445C995.014 8.48398 993.693 9.95 990.969 9.95C988.249 9.95 986.925 8.48398 984.824 5.89445C982.693 3.26849 980.04 0 974.818 0C969.59 0 966.935 3.26849 964.802 5.89445C962.698 8.48519 961.375 9.95 958.651 9.95C955.928 9.95 954.604 8.48398 952.501 5.89445C950.368 3.26849 947.713 0 942.487 0C941.113 0 940 1.11379 940 2.4875C940 3.86121 941.113 4.975 942.487 4.975C945.211 4.975 946.535 6.44102 948.638 9.03055C950.771 11.6565 953.426 14.925 958.651 14.925C963.877 14.925 966.532 11.6577 968.665 9.03176C970.768 6.44102 972.092 4.975 974.818 4.975C977.538 4.975 978.86 6.43981 980.961 9.02933C983.092 11.6565 985.747 14.925 990.969 14.925C996.195 14.925 998.847 11.6565 1000.98 9.03055C1003.08 6.44102 1004.41 4.975 1007.13 4.975C1009.85 4.975 1011.18 6.44102 1013.28 9.03176C1015.41 11.6577 1018.07 14.925 1023.29 14.925C1028.52 14.925 1031.18 11.6565 1033.31 9.03055C1035.41 6.43981 1036.74 4.975 1039.46 4.975C1042.19 4.975 1043.51 6.44102 1045.61 9.03176C1047.75 11.6577 1050.4 14.925 1055.63 14.925C1060.86 14.925 1063.51 11.6565 1065.65 9.03055C1067.75 6.44102 1069.07 4.975 1071.8 4.975C1074.52 4.975 1075.85 6.44102 1077.95 9.03055C1080.08 11.6565 1082.74 14.925 1087.96 14.925C1093.19 14.925 1095.85 11.6577 1097.98 9.03176C1100.09 6.44102 1101.41 4.975 1104.14 4.975C1106.87 4.975 1108.2 6.44102 1110.3 9.03297C1112.44 11.6577 1115.1 14.925 1120.32 14.925C1125.55 14.925 1128.21 11.6577 1130.35 9.03176C1132.46 6.44102 1133.78 4.975 1136.51 4.975C1137.89 4.975 1139 3.86121 1139 2.4875C1139 1.11379 1137.89 0 1136.51 0Z" fill="#FDD68B"/>
<path d="M1428.51 0C1423.28 0 1420.62 3.26727 1418.49 5.89324C1416.38 8.48398 1415.05 9.95 1412.32 9.95C1409.59 9.95 1408.27 8.48398 1406.16 5.89324C1404.03 3.26727 1401.37 0 1396.14 0C1390.91 0 1388.25 3.26849 1386.12 5.89445C1384.01 8.48398 1382.69 9.95 1379.96 9.95C1377.24 9.95 1375.92 8.48398 1373.81 5.89445C1371.68 3.26849 1369.02 0 1363.8 0C1358.57 0 1355.92 3.26727 1353.78 5.89324C1351.68 8.48398 1350.36 9.95 1347.63 9.95C1344.9 9.95 1343.58 8.48519 1341.48 5.89445C1339.34 3.26849 1336.69 0 1331.46 0C1326.24 0 1323.58 3.26727 1321.45 5.89324C1319.34 8.48398 1318.02 9.95 1315.29 9.95C1312.57 9.95 1311.25 8.48519 1309.14 5.89445C1307.01 3.26849 1304.36 0 1299.13 0C1293.9 0 1291.25 3.26849 1289.12 5.89445C1287.01 8.48398 1285.69 9.95 1282.97 9.95C1280.25 9.95 1278.92 8.48398 1276.82 5.89445C1274.69 3.26849 1272.04 0 1266.82 0C1261.59 0 1258.93 3.26849 1256.8 5.89445C1254.7 8.48519 1253.37 9.95 1250.65 9.95C1247.93 9.95 1246.6 8.48398 1244.5 5.89445C1242.37 3.26849 1239.71 0 1234.49 0C1233.11 0 1232 1.11379 1232 2.4875C1232 3.86121 1233.11 4.975 1234.49 4.975C1237.21 4.975 1238.53 6.44102 1240.64 9.03055C1242.77 11.6565 1245.43 14.925 1250.65 14.925C1255.88 14.925 1258.53 11.6577 1260.66 9.03176C1262.77 6.44102 1264.09 4.975 1266.82 4.975C1269.54 4.975 1270.86 6.43981 1272.96 9.02933C1275.09 11.6565 1277.75 14.925 1282.97 14.925C1288.19 14.925 1290.85 11.6565 1292.98 9.03055C1295.08 6.44102 1296.41 4.975 1299.13 4.975C1301.85 4.975 1303.18 6.44102 1305.28 9.03176C1307.41 11.6577 1310.07 14.925 1315.29 14.925C1320.52 14.925 1323.18 11.6565 1325.31 9.03055C1327.41 6.43981 1328.74 4.975 1331.46 4.975C1334.19 4.975 1335.51 6.44102 1337.61 9.03176C1339.75 11.6577 1342.4 14.925 1347.63 14.925C1352.86 14.925 1355.51 11.6565 1357.65 9.03055C1359.75 6.44102 1361.07 4.975 1363.8 4.975C1366.52 4.975 1367.85 6.44102 1369.95 9.03055C1372.08 11.6565 1374.74 14.925 1379.96 14.925C1385.19 14.925 1387.85 11.6577 1389.98 9.03176C1392.09 6.44102 1393.41 4.975 1396.14 4.975C1398.87 4.975 1400.2 6.44102 1402.3 9.03297C1404.44 11.6577 1407.1 14.925 1412.32 14.925C1417.55 14.925 1420.21 11.6577 1422.35 9.03176C1424.46 6.44102 1425.78 4.975 1428.51 4.975C1429.89 4.975 1431 3.86121 1431 2.4875C1431 1.11379 1429.89 0 1428.51 0Z" fill="#FDD68B"/>
<path d="M1266.51 0C1261.28 0 1258.62 3.26727 1256.49 5.89324C1254.38 8.48398 1253.05 9.95 1250.32 9.95C1247.59 9.95 1246.27 8.48398 1244.16 5.89324C1242.03 3.26727 1239.37 0 1234.14 0C1228.91 0 1226.25 3.26849 1224.12 5.89445C1222.01 8.48398 1220.69 9.95 1217.96 9.95C1215.24 9.95 1213.92 8.48398 1211.81 5.89445C1209.68 3.26849 1207.02 0 1201.8 0C1196.57 0 1193.92 3.26727 1191.78 5.89324C1189.68 8.48398 1188.36 9.95 1185.63 9.95C1182.9 9.95 1181.58 8.48519 1179.48 5.89445C1177.34 3.26849 1174.69 0 1169.46 0C1164.24 0 1161.58 3.26727 1159.45 5.89324C1157.34 8.48398 1156.02 9.95 1153.29 9.95C1150.57 9.95 1149.25 8.48519 1147.14 5.89445C1145.01 3.26849 1142.36 0 1137.13 0C1131.9 0 1129.25 3.26849 1127.12 5.89445C1125.01 8.48398 1123.69 9.95 1120.97 9.95C1118.25 9.95 1116.92 8.48398 1114.82 5.89445C1112.69 3.26849 1110.04 0 1104.82 0C1099.59 0 1096.93 3.26849 1094.8 5.89445C1092.7 8.48519 1091.37 9.95 1088.65 9.95C1085.93 9.95 1084.6 8.48398 1082.5 5.89445C1080.37 3.26849 1077.71 0 1072.49 0C1071.11 0 1070 1.11379 1070 2.4875C1070 3.86121 1071.11 4.975 1072.49 4.975C1075.21 4.975 1076.53 6.44102 1078.64 9.03055C1080.77 11.6565 1083.43 14.925 1088.65 14.925C1093.88 14.925 1096.53 11.6577 1098.66 9.03176C1100.77 6.44102 1102.09 4.975 1104.82 4.975C1107.54 4.975 1108.86 6.43981 1110.96 9.02933C1113.09 11.6565 1115.75 14.925 1120.97 14.925C1126.19 14.925 1128.85 11.6565 1130.98 9.03055C1133.08 6.44102 1134.41 4.975 1137.13 4.975C1139.85 4.975 1141.18 6.44102 1143.28 9.03176C1145.41 11.6577 1148.07 14.925 1153.29 14.925C1158.52 14.925 1161.18 11.6565 1163.31 9.03055C1165.41 6.43981 1166.74 4.975 1169.46 4.975C1172.19 4.975 1173.51 6.44102 1175.61 9.03176C1177.75 11.6577 1180.4 14.925 1185.63 14.925C1190.86 14.925 1193.51 11.6565 1195.65 9.03055C1197.75 6.44102 1199.07 4.975 1201.8 4.975C1204.52 4.975 1205.85 6.44102 1207.95 9.03055C1210.08 11.6565 1212.74 14.925 1217.96 14.925C1223.19 14.925 1225.85 11.6577 1227.98 9.03176C1230.09 6.44102 1231.41 4.975 1234.14 4.975C1236.87 4.975 1238.2 6.44102 1240.3 9.03297C1242.44 11.6577 1245.1 14.925 1250.32 14.925C1255.55 14.925 1258.21 11.6577 1260.35 9.03176C1262.46 6.44102 1263.78 4.975 1266.51 4.975C1267.89 4.975 1269 3.86121 1269 2.4875C1269 1.11379 1267.89 0 1266.51 0Z" fill="#FDD68B"/>
<path d="M196.512 0C191.282 0 188.625 3.26727 186.49 5.89324C184.381 8.48398 183.055 9.95 180.324 9.95C177.594 9.95 176.27 8.48398 174.161 5.89324C172.026 3.26727 169.369 0 164.139 0C158.911 0 156.253 3.26849 154.118 5.89445C152.014 8.48398 150.688 9.95 147.963 9.95C145.239 9.95 143.915 8.48398 141.812 5.89445C139.679 3.26849 137.024 0 131.799 0C126.573 0 123.918 3.26727 121.783 5.89324C119.679 8.48398 118.355 9.95 115.627 9.95C112.904 9.95 111.58 8.48519 109.477 5.89445C107.344 3.26849 104.689 0 99.4611 0C94.2359 0 91.5808 3.26727 89.448 5.89324C87.3443 8.48398 86.0204 9.95 83.2948 9.95C80.5717 9.95 79.2478 8.48519 77.1441 5.89445C75.0112 3.26849 72.3561 0 67.1285 0C61.9033 0 59.2506 3.26849 57.1178 5.89445C55.0141 8.48398 53.6926 9.95 50.9695 9.95C48.2488 9.95 46.9248 8.48398 44.8236 5.89445C42.6932 3.26849 40.0405 0 34.8177 0C29.5901 0 26.935 3.26849 24.8021 5.89445C22.6984 8.48519 21.3745 9.95 18.6514 9.95C15.9283 9.95 14.6043 8.48398 12.5007 5.89445C10.3678 3.26849 7.71271 0 2.4875 0C1.11257 0 0 1.11379 0 2.4875C0 3.86121 1.11257 4.975 2.4875 4.975C5.21063 4.975 6.53455 6.44102 8.63823 9.03055C10.7711 11.6565 13.4262 14.925 18.6514 14.925C23.8766 14.925 26.5317 11.6577 28.6646 9.03176C30.7682 6.44102 32.0922 4.975 34.8177 4.975C37.5384 4.975 38.8599 6.43981 40.9612 9.02933C43.0916 11.6565 45.7467 14.925 50.9695 14.925C56.1947 14.925 58.8474 11.6565 60.9802 9.03055C63.0839 6.44102 64.4054 4.975 67.1285 4.975C69.854 4.975 71.178 6.44102 73.2817 9.03176C75.4145 11.6577 78.0696 14.925 83.2948 14.925C88.5224 14.925 91.1776 11.6565 93.3104 9.03055C95.4141 6.43981 96.738 4.975 99.4611 4.975C102.187 4.975 103.511 6.44102 105.614 9.03176C107.747 11.6577 110.402 14.925 115.627 14.925C120.855 14.925 123.51 11.6565 125.645 9.03055C127.749 6.44102 129.073 4.975 131.799 4.975C134.522 4.975 135.846 6.44102 137.949 9.03055C140.082 11.6565 142.737 14.925 147.963 14.925C153.19 14.925 155.845 11.6577 157.981 9.03176C160.087 6.44102 161.411 4.975 164.139 4.975C166.869 4.975 168.195 6.44102 170.304 9.03297C172.439 11.6577 175.097 14.925 180.324 14.925C185.554 14.925 188.212 11.6577 190.347 9.03176C192.456 6.44102 193.782 4.975 196.512 4.975C197.887 4.975 199 3.86121 199 2.4875C199 1.11379 197.887 0 196.512 0Z" fill="#FDD68B"/>
<path d="M488.512 0C483.282 0 480.625 3.26727 478.49 5.89324C476.381 8.48398 475.055 9.95 472.324 9.95C469.594 9.95 468.27 8.48398 466.161 5.89324C464.026 3.26727 461.369 0 456.139 0C450.911 0 448.253 3.26849 446.118 5.89445C444.014 8.48398 442.688 9.95 439.963 9.95C437.239 9.95 435.915 8.48398 433.812 5.89445C431.679 3.26849 429.024 0 423.799 0C418.573 0 415.918 3.26727 413.783 5.89324C411.679 8.48398 410.355 9.95 407.627 9.95C404.904 9.95 403.58 8.48519 401.477 5.89445C399.344 3.26849 396.689 0 391.461 0C386.236 0 383.581 3.26727 381.448 5.89324C379.344 8.48398 378.02 9.95 375.295 9.95C372.572 9.95 371.248 8.48519 369.144 5.89445C367.011 3.26849 364.356 0 359.128 0C353.903 0 351.251 3.26849 349.118 5.89445C347.014 8.48398 345.693 9.95 342.969 9.95C340.249 9.95 338.925 8.48398 336.824 5.89445C334.693 3.26849 332.04 0 326.818 0C321.59 0 318.935 3.26849 316.802 5.89445C314.698 8.48519 313.375 9.95 310.651 9.95C307.928 9.95 306.604 8.48398 304.501 5.89445C302.368 3.26849 299.713 0 294.487 0C293.113 0 292 1.11379 292 2.4875C292 3.86121 293.113 4.975 294.487 4.975C297.211 4.975 298.535 6.44102 300.638 9.03055C302.771 11.6565 305.426 14.925 310.651 14.925C315.877 14.925 318.532 11.6577 320.665 9.03176C322.768 6.44102 324.092 4.975 326.818 4.975C329.538 4.975 330.86 6.43981 332.961 9.02933C335.092 11.6565 337.747 14.925 342.969 14.925C348.195 14.925 350.847 11.6565 352.98 9.03055C355.084 6.44102 356.405 4.975 359.128 4.975C361.854 4.975 363.178 6.44102 365.282 9.03176C367.414 11.6577 370.07 14.925 375.295 14.925C380.522 14.925 383.178 11.6565 385.31 9.03055C387.414 6.43981 388.738 4.975 391.461 4.975C394.187 4.975 395.511 6.44102 397.614 9.03176C399.747 11.6577 402.402 14.925 407.627 14.925C412.855 14.925 415.51 11.6565 417.645 9.03055C419.749 6.44102 421.073 4.975 423.799 4.975C426.522 4.975 427.846 6.44102 429.949 9.03055C432.082 11.6565 434.737 14.925 439.963 14.925C445.19 14.925 447.845 11.6577 449.981 9.03176C452.087 6.44102 453.411 4.975 456.139 4.975C458.869 4.975 460.195 6.44102 462.304 9.03297C464.439 11.6577 467.097 14.925 472.324 14.925C477.554 14.925 480.212 11.6577 482.347 9.03176C484.456 6.44102 485.782 4.975 488.512 4.975C489.887 4.975 491 3.86121 491 2.4875C491 1.11379 489.887 0 488.512 0Z" fill="#FDD68B"/>
<path d="M326.512 0C321.282 0 318.625 3.26727 316.49 5.89324C314.381 8.48398 313.055 9.95 310.324 9.95C307.594 9.95 306.27 8.48398 304.161 5.89324C302.026 3.26727 299.369 0 294.139 0C288.911 0 286.253 3.26849 284.118 5.89445C282.014 8.48398 280.688 9.95 277.963 9.95C275.239 9.95 273.915 8.48398 271.812 5.89445C269.679 3.26849 267.024 0 261.799 0C256.573 0 253.918 3.26727 251.783 5.89324C249.679 8.48398 248.355 9.95 245.627 9.95C242.904 9.95 241.58 8.48519 239.477 5.89445C237.344 3.26849 234.689 0 229.461 0C224.236 0 221.581 3.26727 219.448 5.89324C217.344 8.48398 216.02 9.95 213.295 9.95C210.572 9.95 209.248 8.48519 207.144 5.89445C205.011 3.26849 202.356 0 197.128 0C191.903 0 189.251 3.26849 187.118 5.89445C185.014 8.48398 183.693 9.95 180.969 9.95C178.249 9.95 176.925 8.48398 174.824 5.89445C172.693 3.26849 170.04 0 164.818 0C159.59 0 156.935 3.26849 154.802 5.89445C152.698 8.48519 151.375 9.95 148.651 9.95C145.928 9.95 144.604 8.48398 142.501 5.89445C140.368 3.26849 137.713 0 132.487 0C131.113 0 130 1.11379 130 2.4875C130 3.86121 131.113 4.975 132.487 4.975C135.211 4.975 136.535 6.44102 138.638 9.03055C140.771 11.6565 143.426 14.925 148.651 14.925C153.877 14.925 156.532 11.6577 158.665 9.03176C160.768 6.44102 162.092 4.975 164.818 4.975C167.538 4.975 168.86 6.43981 170.961 9.02933C173.092 11.6565 175.747 14.925 180.969 14.925C186.195 14.925 188.847 11.6565 190.98 9.03055C193.084 6.44102 194.405 4.975 197.128 4.975C199.854 4.975 201.178 6.44102 203.282 9.03176C205.414 11.6577 208.07 14.925 213.295 14.925C218.522 14.925 221.178 11.6565 223.31 9.03055C225.414 6.43981 226.738 4.975 229.461 4.975C232.187 4.975 233.511 6.44102 235.614 9.03176C237.747 11.6577 240.402 14.925 245.627 14.925C250.855 14.925 253.51 11.6565 255.645 9.03055C257.749 6.44102 259.073 4.975 261.799 4.975C264.522 4.975 265.846 6.44102 267.949 9.03055C270.082 11.6565 272.737 14.925 277.963 14.925C283.19 14.925 285.845 11.6577 287.981 9.03176C290.087 6.44102 291.411 4.975 294.139 4.975C296.869 4.975 298.195 6.44102 300.304 9.03297C302.439 11.6577 305.097 14.925 310.324 14.925C315.554 14.925 318.212 11.6577 320.347 9.03176C322.456 6.44102 323.782 4.975 326.512 4.975C327.887 4.975 329 3.86121 329 2.4875C329 1.11379 327.887 0 326.512 0Z" fill="#FDD68B"/>
</svg>
